<svg xmlns="http://www.w3.org/2000/svg"  viewBox="0 0 50 50" width="50px" height="50px"><path d="M 3 3 C 1.347656 3 0 4.347656 0 6 L 0 9 L 50 9 L 50 6 C 50 4.347656 48.652344 3 47 3 Z M 0 11 L 0 47 L 50 47 L 50 11 Z M 29 15 C 29.128906 15 29.246094 15.011719 29.375 15.0625 C 29.886719 15.273438 30.148438 15.863281 29.9375 16.375 L 20.9375 38.375 C 20.777344 38.761719 20.394531 39 20 39 C 19.875 39 19.75 38.988281 19.625 38.9375 C 19.113281 38.726563 18.851563 38.136719 19.0625 37.625 L 28.0625 15.625 C 28.21875 15.242188 28.609375 15.003906 29 15 Z M 15.875 21 C 16.261719 20.953125 16.667969 21.140625 16.875 21.5 C 17.148438 21.980469 16.980469 22.601563 16.5 22.875 L 11.03125 26 L 16.5 29.125 C 16.980469 29.398438 17.148438 30.019531 16.875 30.5 C 16.691406 30.824219 16.347656 31 16 31 C 15.832031 31 15.65625 30.964844 15.5 30.875 L 8.5 26.875 C 8.1875 26.695313 8 26.359375 8 26 C 8 25.640625 8.1875 25.304688 8.5 25.125 L 15.5 21.125 C 15.621094 21.058594 15.746094 21.015625 15.875 21 Z M 34.125 21 C 34.253906 21.015625 34.378906 21.054688 34.5 21.125 L 41.5 25.125 C 41.8125 25.304688 42 25.640625 42 26 C 42 26.359375 41.8125 26.695313 41.5 26.875 L 34.5 30.875 C 34.34375 30.964844 34.167969 31 34 31 C 33.652344 31 33.308594 30.824219 33.125 30.5 C 32.851563 30.019531 33.019531 29.398438 33.5 29.125 L 38.96875 26 L 33.5 22.875 C 33.019531 22.601563 32.851563 21.980469 33.125 21.5 C 33.328125 21.140625 33.738281 20.953125 34.125 21 Z"/></svg>