<svg xmlns="http://www.w3.org/2000/svg"  viewBox="0 0 50 50" width="50px" height="50px"><path d="M 41.707031 13.792969 L 30.207031 2.292969 C 30.019531 2.105469 29.765625 2 29.5 2 L 11.492188 2 C 9.566406 2 8 3.5625 8 5.480469 L 8 43.902344 C 8 46.160156 9.84375 48 12.113281 48 L 37.886719 48 C 40.15625 48 42 46.160156 42 43.902344 L 42 14.5 C 42 14.234375 41.894531 13.980469 41.707031 13.792969 Z M 26 38 L 17 38 L 17 36 L 26 36 Z M 33 34 L 17 34 L 17 32 L 33 32 Z M 33 30 L 17 30 L 17 28 L 33 28 Z M 33 26 L 17 26 L 17 24 L 33 24 Z M 31.667969 14 C 30.746094 14 30 13.253906 30 12.332031 L 30 4.914063 L 39.085938 14 Z"/></svg>