<svg xmlns="http://www.w3.org/2000/svg"  viewBox="0 0 50 50" width="50px" height="50px"><path d="M 21 5 C 20.449219 5 20 5.449219 20 6 L 20 10 C 20 10.550781 20.449219 11 21 11 L 25 11 L 25 13 L 31 13 L 31 11 L 35 11 C 35.554688 11 36 10.550781 36 10 L 36 6 C 36 5.449219 35.554688 5 35 5 Z M 20 14 C 19.253906 14 18.503906 14.292969 17.9375 14.875 L 13.53125 20 L 11 20 C 9.457031 20 8 21.457031 8 23 L 8 35 C 8 36.570313 9.429688 38 11 38 L 13.53125 38 L 18 43.15625 C 18.523438 43.6875 19.253906 44 20 44 L 32.84375 44 C 33.585938 44 34.320313 43.6875 34.84375 43.15625 L 42.1875 35.6875 C 42.714844 35.152344 43 34.449219 43 33.6875 L 43 32 L 44 32 L 44 36 C 44 36.554688 44.445313 37 45 37 L 49 37 C 49.554688 37 50 36.554688 50 36 L 50 20 C 50 19.445313 49.554688 19 49 19 L 45 19 C 44.445313 19 44 19.445313 44 20 L 44 24 L 43 24 L 43 16.84375 C 43 15.273438 41.738281 14 40.1875 14 Z M 1 20 C 0.449219 20 0 20.449219 0 21 L 0 37 C 0 37.554688 0.449219 38 1 38 L 5 38 C 5.550781 38 6 37.554688 6 37 L 6 32 L 7 32 L 7 26 L 6 26 L 6 21 C 6 20.449219 5.550781 20 5 20 Z M 27 20 L 32 20 L 27 28 L 32 28 L 24 39 L 27 30 L 22 30 Z"/></svg>