<svg xmlns="http://www.w3.org/2000/svg"  viewBox="0 0 512 512" width="64px" height="64px"><path d="M444.909,54H357.636a10,10,0,0,0-10,10v38H304.727a40.045,40.045,0,0,0-40,40v63.454H234.182a10,10,0,0,0-10,10V246H164.364V208a10,10,0,0,0-10-10H67.091a10,10,0,0,0-10,10v96a10,10,0,0,0,10,10h87.273a10,10,0,0,0,10-10V266h59.818v30.546a10,10,0,0,0,10,10h30.545V370a40.045,40.045,0,0,0,40,40h42.909v38a10,10,0,0,0,10,10h87.273a10,10,0,0,0,10-10V352a10,10,0,0,0-10-10H357.636a10,10,0,0,0-10,10v38H304.727a20.023,20.023,0,0,1-20-20V306.546h26.182a10,10,0,0,0,10-10V215.454a10,10,0,0,0-10-10H284.727V142a20.023,20.023,0,0,1,20-20h42.909v38a10,10,0,0,0,10,10h87.273a10,10,0,0,0,10-10V64A10,10,0,0,0,444.909,54Z"/></svg>