<svg xmlns="http://www.w3.org/2000/svg"  viewBox="0 0 50 50" width="50px" height="50px"><path d="M 3 6 C 1.347656 6 0 7.347656 0 9 L 0 15 C 0 16.652344 1.347656 18 3 18 L 11 18 C 12.652344 18 14 16.652344 14 15 L 14 9 C 14 7.347656 12.652344 6 11 6 Z M 23 6 C 21.347656 6 20 7.347656 20 9 L 20 11 L 16 11 L 16 13 L 20 13 L 20 15 C 20 16.652344 21.347656 18 23 18 L 31 18 C 32.652344 18 34 16.652344 34 15 L 34 9 C 34 7.347656 32.652344 6 31 6 Z M 36 11 L 36 13 L 39 13 C 40.652344 13 42 14.347656 42 16 L 42 17 L 44 17 L 44 16 C 44 13.242188 41.757813 11 39 11 Z M 39 19 C 37.347656 19 36 20.347656 36 22 L 36 28 C 36 29.652344 37.347656 31 39 31 L 47 31 C 48.652344 31 50 29.652344 50 28 L 50 22 C 50 20.347656 48.652344 19 47 19 Z M 3 32 C 1.347656 32 0 33.347656 0 35 L 0 41 C 0 42.652344 1.347656 44 3 44 L 11 44 C 12.652344 44 14 42.652344 14 41 L 14 35 C 14 33.347656 12.652344 32 11 32 Z M 23 32 C 21.347656 32 20 33.347656 20 35 L 20 37 L 16 37 L 16 39 L 20 39 L 20 41 C 20 42.652344 21.347656 44 23 44 L 31 44 C 32.652344 44 34 42.652344 34 41 L 34 35 C 34 33.347656 32.652344 32 31 32 Z M 42 33 L 42 34 C 42 35.652344 40.652344 37 39 37 L 36 37 L 36 39 L 39 39 C 41.757813 39 44 36.757813 44 34 L 44 33 Z"/></svg>