<svg xmlns="http://www.w3.org/2000/svg"  viewBox="0 0 64 64" width="48px" height="48px"><path d="M46 53H28c-1.104 0-2-.896-2-2s.896-2 2-2h18c1.104 0 2 .896 2 2S47.104 53 46 53zM51 46H28c-1.104 0-2-.896-2-2s.896-2 2-2h23c1.104 0 2 .896 2 2S52.104 46 51 46zM13 53c-1.105 0-2-.895-2-2v-7c0-1.105.895-2 2-2h7c1.105 0 2 .895 2 2v7c0 1.105-.895 2-2 2H13zM46 38H28c-1.104 0-2-.896-2-2s.896-2 2-2h18c1.104 0 2 .896 2 2S47.104 38 46 38zM51 31H28c-1.104 0-2-.896-2-2s.896-2 2-2h23c1.104 0 2 .896 2 2S52.104 31 51 31zM13 38c-1.105 0-2-.895-2-2v-7c0-1.105.895-2 2-2h7c1.105 0 2 .895 2 2v7c0 1.105-.895 2-2 2H13zM46 23H28c-1.104 0-2-.896-2-2s.896-2 2-2h18c1.104 0 2 .896 2 2S47.104 23 46 23zM51 16H28c-1.104 0-2-.896-2-2s.896-2 2-2h23c1.104 0 2 .896 2 2S52.104 16 51 16zM13 23c-1.105 0-2-.895-2-2v-7c0-1.105.895-2 2-2h7c1.105 0 2 .895 2 2v7c0 1.105-.895 2-2 2H13z"/></svg>