<svg xmlns="http://www.w3.org/2000/svg"  viewBox="0 0 64 64" width="64px" height="64px"><path d="M13,60h38V42l-38,1V60z M13,40h38V30H13V40z M13,28h38V18H13V28z M13,6v10h38V5L13,6z M35,51c0,1.657-1.343,3-3,3	c-1.657,0-3-1.343-3-3s1.343-3,3-3C33.657,48,35,49.343,35,51z M47,11c0,1.105-0.895,2-2,2s-2-0.895-2-2s0.895-2,2-2S47,9.895,47,11	z M47,23c0,1.105-0.895,2-2,2s-2-0.895-2-2s0.895-2,2-2S47,21.895,47,23z M47,35c0,1.105-0.895,2-2,2s-2-0.895-2-2s0.895-2,2-2	S47,33.895,47,35z M23,12h-6v-2h6V12z M23,24h-6v-2h6V24z M23,36h-6v-2h6V36z"/></svg>